<mxfile host="app.diagrams.net" modified="2023-10-13T19:20:20.387Z" agent="Mozilla/5.0 (X11; Linux x86_64) AppleWebKit/537.36 (KHTML, like Gecko) Chrome/118.0.0.0 Safari/537.36" etag="SsGqumVxzU71yg_S4Cge" version="22.0.4" type="device" pages="4">
  <diagram name="base case" id="5f0bae14-7c28-e335-631c-24af17079c00">
    <mxGraphModel dx="1082" dy="1164" grid="1" gridSize="10" guides="1" tooltips="1" connect="1" arrows="1" fold="1" page="1" pageScale="1" pageWidth="1100" pageHeight="850" background="none" math="0" shadow="0">
      <root>
        <mxCell id="0" />
        <mxCell id="1" parent="0" />
        <mxCell id="39150e848f15840c-3" value="Borrow/Lending Pool" style="verticalAlign=top;align=left;spacingTop=8;spacingLeft=2;spacingRight=12;shape=cube;size=10;direction=south;fontStyle=4;html=1;rounded=0;shadow=0;comic=0;labelBackgroundColor=none;strokeWidth=1;fontFamily=Verdana;fontSize=12" parent="1" vertex="1">
          <mxGeometry x="370" y="709" width="260" height="150" as="geometry" />
        </mxCell>
        <mxCell id="N3YimbVKFhX_4SiUM1jl-1" value="NEAR/USDT loans" style="rounded=1;whiteSpace=wrap;html=1;" vertex="1" parent="1">
          <mxGeometry x="460" y="769" width="80" height="30" as="geometry" />
        </mxCell>
        <mxCell id="N3YimbVKFhX_4SiUM1jl-3" value="Deposit NEAR Collateral" style="text;html=1;align=center;verticalAlign=middle;resizable=0;points=[];autosize=1;strokeColor=none;fillColor=none;" vertex="1" parent="1">
          <mxGeometry x="170" y="899" width="150" height="30" as="geometry" />
        </mxCell>
        <mxCell id="N3YimbVKFhX_4SiUM1jl-5" value="Borrowers" style="shape=umlActor;verticalLabelPosition=bottom;verticalAlign=top;html=1;outlineConnect=0;" vertex="1" parent="1">
          <mxGeometry x="290" y="1008" width="30" height="60" as="geometry" />
        </mxCell>
        <mxCell id="N3YimbVKFhX_4SiUM1jl-8" value="" style="endArrow=classic;html=1;rounded=0;entryX=0;entryY=0.5;entryDx=0;entryDy=0;" edge="1" parent="1" target="N3YimbVKFhX_4SiUM1jl-1">
          <mxGeometry width="50" height="50" relative="1" as="geometry">
            <mxPoint x="270" y="959" as="sourcePoint" />
            <mxPoint x="320" y="909" as="targetPoint" />
          </mxGeometry>
        </mxCell>
        <mxCell id="N3YimbVKFhX_4SiUM1jl-9" value="" style="endArrow=classic;html=1;rounded=0;exitX=0;exitY=1;exitDx=0;exitDy=0;" edge="1" parent="1" source="N3YimbVKFhX_4SiUM1jl-1">
          <mxGeometry width="50" height="50" relative="1" as="geometry">
            <mxPoint x="530" y="799" as="sourcePoint" />
            <mxPoint x="310" y="989.909090909091" as="targetPoint" />
          </mxGeometry>
        </mxCell>
        <mxCell id="N3YimbVKFhX_4SiUM1jl-10" value="Borrow USDT" style="text;html=1;align=center;verticalAlign=middle;resizable=0;points=[];autosize=1;strokeColor=none;fillColor=none;" vertex="1" parent="1">
          <mxGeometry x="350" y="919" width="100" height="30" as="geometry" />
        </mxCell>
        <mxCell id="N3YimbVKFhX_4SiUM1jl-12" value="Deposit USDT" style="text;html=1;align=center;verticalAlign=middle;resizable=0;points=[];autosize=1;strokeColor=none;fillColor=none;" vertex="1" parent="1">
          <mxGeometry x="610" y="939" width="100" height="30" as="geometry" />
        </mxCell>
        <mxCell id="N3YimbVKFhX_4SiUM1jl-15" value="Lenders" style="shape=umlActor;verticalLabelPosition=bottom;verticalAlign=top;html=1;outlineConnect=0;" vertex="1" parent="1">
          <mxGeometry x="779" y="995" width="30" height="60" as="geometry" />
        </mxCell>
        <mxCell id="N3YimbVKFhX_4SiUM1jl-16" value="Receive GRTS" style="text;html=1;align=center;verticalAlign=middle;resizable=0;points=[];autosize=1;strokeColor=none;fillColor=none;" vertex="1" parent="1">
          <mxGeometry x="690" y="889" width="100" height="30" as="geometry" />
        </mxCell>
        <mxCell id="N3YimbVKFhX_4SiUM1jl-20" value="" style="shape=umlActor;verticalLabelPosition=bottom;verticalAlign=top;html=1;outlineConnect=0;" vertex="1" parent="1">
          <mxGeometry x="250" y="969" width="30" height="60" as="geometry" />
        </mxCell>
        <mxCell id="N3YimbVKFhX_4SiUM1jl-21" value="" style="shape=umlActor;verticalLabelPosition=bottom;verticalAlign=top;html=1;outlineConnect=0;" vertex="1" parent="1">
          <mxGeometry x="260" y="979" width="30" height="60" as="geometry" />
        </mxCell>
        <mxCell id="N3YimbVKFhX_4SiUM1jl-22" value="" style="shape=umlActor;verticalLabelPosition=bottom;verticalAlign=top;html=1;outlineConnect=0;" vertex="1" parent="1">
          <mxGeometry x="270" y="989" width="30" height="60" as="geometry" />
        </mxCell>
        <mxCell id="N3YimbVKFhX_4SiUM1jl-23" value="" style="shape=umlActor;verticalLabelPosition=bottom;verticalAlign=top;html=1;outlineConnect=0;" vertex="1" parent="1">
          <mxGeometry x="280" y="999" width="30" height="60" as="geometry" />
        </mxCell>
        <mxCell id="N3YimbVKFhX_4SiUM1jl-24" value="" style="shape=umlActor;verticalLabelPosition=bottom;verticalAlign=top;html=1;outlineConnect=0;" vertex="1" parent="1">
          <mxGeometry x="740" y="959" width="30" height="60" as="geometry" />
        </mxCell>
        <mxCell id="N3YimbVKFhX_4SiUM1jl-25" value="" style="shape=umlActor;verticalLabelPosition=bottom;verticalAlign=top;html=1;outlineConnect=0;" vertex="1" parent="1">
          <mxGeometry x="750" y="969" width="30" height="60" as="geometry" />
        </mxCell>
        <mxCell id="N3YimbVKFhX_4SiUM1jl-26" value="" style="shape=umlActor;verticalLabelPosition=bottom;verticalAlign=top;html=1;outlineConnect=0;" vertex="1" parent="1">
          <mxGeometry x="760" y="979" width="30" height="60" as="geometry" />
        </mxCell>
        <mxCell id="N3YimbVKFhX_4SiUM1jl-27" value="" style="shape=umlActor;verticalLabelPosition=bottom;verticalAlign=top;html=1;outlineConnect=0;" vertex="1" parent="1">
          <mxGeometry x="770" y="989" width="30" height="60" as="geometry" />
        </mxCell>
        <mxCell id="N3YimbVKFhX_4SiUM1jl-28" value="" style="endArrow=classic;html=1;rounded=0;entryX=1;entryY=1;entryDx=0;entryDy=0;" edge="1" parent="1" source="N3YimbVKFhX_4SiUM1jl-24" target="N3YimbVKFhX_4SiUM1jl-1">
          <mxGeometry width="50" height="50" relative="1" as="geometry">
            <mxPoint x="530" y="799" as="sourcePoint" />
            <mxPoint x="580" y="749" as="targetPoint" />
          </mxGeometry>
        </mxCell>
        <mxCell id="N3YimbVKFhX_4SiUM1jl-29" value="" style="endArrow=classic;html=1;rounded=0;exitX=1;exitY=0.5;exitDx=0;exitDy=0;entryX=0.5;entryY=0;entryDx=0;entryDy=0;entryPerimeter=0;" edge="1" parent="1" source="N3YimbVKFhX_4SiUM1jl-1" target="N3YimbVKFhX_4SiUM1jl-24">
          <mxGeometry width="50" height="50" relative="1" as="geometry">
            <mxPoint x="530" y="799" as="sourcePoint" />
            <mxPoint x="580" y="749" as="targetPoint" />
          </mxGeometry>
        </mxCell>
        <mxCell id="VCYN5BxfTDvzeruUeGpk-1" value="Base Case Protocol Operation State Machine" style="text;strokeColor=none;fillColor=none;html=1;fontSize=24;fontStyle=1;verticalAlign=middle;align=center;" vertex="1" parent="1">
          <mxGeometry x="190" y="649" width="600" height="40" as="geometry" />
        </mxCell>
      </root>
    </mxGraphModel>
  </diagram>
  <diagram id="YqKX4fHjVXoXxGtgM-4u" name="liquidation">
    <mxGraphModel dx="1082" dy="1164" grid="1" gridSize="10" guides="1" tooltips="1" connect="1" arrows="1" fold="1" page="1" pageScale="1" pageWidth="1100" pageHeight="850" math="0" shadow="0">
      <root>
        <mxCell id="0" />
        <mxCell id="1" parent="0" />
        <mxCell id="pZN_wZDpvpYa7H3pcOcD-1" value="Smart Contract State" style="verticalAlign=top;align=left;spacingTop=8;spacingLeft=2;spacingRight=12;shape=cube;size=10;direction=south;fontStyle=4;html=1;rounded=0;shadow=0;comic=0;labelBackgroundColor=none;strokeWidth=1;fontFamily=Verdana;fontSize=12" vertex="1" parent="1">
          <mxGeometry x="250" y="400" width="590" height="160" as="geometry" />
        </mxCell>
        <mxCell id="pZN_wZDpvpYa7H3pcOcD-2" value="NEAR/USDT&lt;br&gt;loans in good standing" style="rounded=1;whiteSpace=wrap;html=1;" vertex="1" parent="1">
          <mxGeometry x="290" y="500" width="130" height="50" as="geometry" />
        </mxCell>
        <mxCell id="pZN_wZDpvpYa7H3pcOcD-3" value="Deposit NEAR Collateral" style="text;html=1;align=center;verticalAlign=middle;resizable=0;points=[];autosize=1;strokeColor=none;fillColor=none;" vertex="1" parent="1">
          <mxGeometry x="130" y="600" width="150" height="30" as="geometry" />
        </mxCell>
        <mxCell id="pZN_wZDpvpYa7H3pcOcD-4" value="Borrowers" style="shape=umlActor;verticalLabelPosition=bottom;verticalAlign=top;html=1;outlineConnect=0;" vertex="1" parent="1">
          <mxGeometry x="290" y="709" width="30" height="60" as="geometry" />
        </mxCell>
        <mxCell id="pZN_wZDpvpYa7H3pcOcD-5" value="" style="endArrow=classic;html=1;rounded=0;entryX=0;entryY=0.5;entryDx=0;entryDy=0;" edge="1" parent="1" target="pZN_wZDpvpYa7H3pcOcD-2">
          <mxGeometry width="50" height="50" relative="1" as="geometry">
            <mxPoint x="270" y="660" as="sourcePoint" />
            <mxPoint x="320" y="610" as="targetPoint" />
          </mxGeometry>
        </mxCell>
        <mxCell id="pZN_wZDpvpYa7H3pcOcD-6" value="" style="endArrow=classic;html=1;rounded=0;exitX=0.25;exitY=1;exitDx=0;exitDy=0;" edge="1" parent="1" source="pZN_wZDpvpYa7H3pcOcD-2">
          <mxGeometry width="50" height="50" relative="1" as="geometry">
            <mxPoint x="530" y="500" as="sourcePoint" />
            <mxPoint x="310" y="690.909090909091" as="targetPoint" />
          </mxGeometry>
        </mxCell>
        <mxCell id="pZN_wZDpvpYa7H3pcOcD-7" value="Borrow USDT" style="text;html=1;align=center;verticalAlign=middle;resizable=0;points=[];autosize=1;strokeColor=none;fillColor=none;" vertex="1" parent="1">
          <mxGeometry x="309" y="608" width="100" height="30" as="geometry" />
        </mxCell>
        <mxCell id="pZN_wZDpvpYa7H3pcOcD-8" value="Deposit USDT" style="text;html=1;align=center;verticalAlign=middle;resizable=0;points=[];autosize=1;strokeColor=none;fillColor=none;" vertex="1" parent="1">
          <mxGeometry x="580" y="638" width="100" height="30" as="geometry" />
        </mxCell>
        <mxCell id="pZN_wZDpvpYa7H3pcOcD-9" value="Lenders" style="shape=umlActor;verticalLabelPosition=bottom;verticalAlign=top;html=1;outlineConnect=0;" vertex="1" parent="1">
          <mxGeometry x="779" y="696" width="30" height="60" as="geometry" />
        </mxCell>
        <mxCell id="pZN_wZDpvpYa7H3pcOcD-10" value="Receive GRTS" style="text;html=1;align=center;verticalAlign=middle;resizable=0;points=[];autosize=1;strokeColor=none;fillColor=none;" vertex="1" parent="1">
          <mxGeometry x="679" y="605" width="100" height="30" as="geometry" />
        </mxCell>
        <mxCell id="pZN_wZDpvpYa7H3pcOcD-11" value="" style="shape=umlActor;verticalLabelPosition=bottom;verticalAlign=top;html=1;outlineConnect=0;" vertex="1" parent="1">
          <mxGeometry x="250" y="670" width="30" height="60" as="geometry" />
        </mxCell>
        <mxCell id="pZN_wZDpvpYa7H3pcOcD-12" value="" style="shape=umlActor;verticalLabelPosition=bottom;verticalAlign=top;html=1;outlineConnect=0;" vertex="1" parent="1">
          <mxGeometry x="260" y="680" width="30" height="60" as="geometry" />
        </mxCell>
        <mxCell id="pZN_wZDpvpYa7H3pcOcD-13" value="" style="shape=umlActor;verticalLabelPosition=bottom;verticalAlign=top;html=1;outlineConnect=0;" vertex="1" parent="1">
          <mxGeometry x="270" y="690" width="30" height="60" as="geometry" />
        </mxCell>
        <mxCell id="pZN_wZDpvpYa7H3pcOcD-14" value="" style="shape=umlActor;verticalLabelPosition=bottom;verticalAlign=top;html=1;outlineConnect=0;" vertex="1" parent="1">
          <mxGeometry x="280" y="700" width="30" height="60" as="geometry" />
        </mxCell>
        <mxCell id="pZN_wZDpvpYa7H3pcOcD-15" value="" style="shape=umlActor;verticalLabelPosition=bottom;verticalAlign=top;html=1;outlineConnect=0;" vertex="1" parent="1">
          <mxGeometry x="740" y="660" width="30" height="60" as="geometry" />
        </mxCell>
        <mxCell id="pZN_wZDpvpYa7H3pcOcD-16" value="" style="shape=umlActor;verticalLabelPosition=bottom;verticalAlign=top;html=1;outlineConnect=0;" vertex="1" parent="1">
          <mxGeometry x="750" y="670" width="30" height="60" as="geometry" />
        </mxCell>
        <mxCell id="pZN_wZDpvpYa7H3pcOcD-17" value="" style="shape=umlActor;verticalLabelPosition=bottom;verticalAlign=top;html=1;outlineConnect=0;" vertex="1" parent="1">
          <mxGeometry x="760" y="680" width="30" height="60" as="geometry" />
        </mxCell>
        <mxCell id="pZN_wZDpvpYa7H3pcOcD-18" value="" style="shape=umlActor;verticalLabelPosition=bottom;verticalAlign=top;html=1;outlineConnect=0;" vertex="1" parent="1">
          <mxGeometry x="770" y="690" width="30" height="60" as="geometry" />
        </mxCell>
        <mxCell id="pZN_wZDpvpYa7H3pcOcD-19" value="" style="endArrow=classic;html=1;rounded=0;entryX=1;entryY=1;entryDx=0;entryDy=0;" edge="1" parent="1" source="pZN_wZDpvpYa7H3pcOcD-15" target="pZN_wZDpvpYa7H3pcOcD-2">
          <mxGeometry width="50" height="50" relative="1" as="geometry">
            <mxPoint x="530" y="500" as="sourcePoint" />
            <mxPoint x="580" y="450" as="targetPoint" />
          </mxGeometry>
        </mxCell>
        <mxCell id="pZN_wZDpvpYa7H3pcOcD-20" value="" style="endArrow=classic;html=1;rounded=0;exitX=1;exitY=0.5;exitDx=0;exitDy=0;entryX=0.5;entryY=0;entryDx=0;entryDy=0;entryPerimeter=0;" edge="1" parent="1" source="pZN_wZDpvpYa7H3pcOcD-2" target="pZN_wZDpvpYa7H3pcOcD-15">
          <mxGeometry width="50" height="50" relative="1" as="geometry">
            <mxPoint x="530" y="500" as="sourcePoint" />
            <mxPoint x="580" y="450" as="targetPoint" />
          </mxGeometry>
        </mxCell>
        <mxCell id="pZN_wZDpvpYa7H3pcOcD-23" value="" style="shape=actor;whiteSpace=wrap;html=1;" vertex="1" parent="1">
          <mxGeometry x="550" y="235" width="40" height="60" as="geometry" />
        </mxCell>
        <mxCell id="pZN_wZDpvpYa7H3pcOcD-24" value="Liquidation Bot" style="text;html=1;align=center;verticalAlign=middle;resizable=0;points=[];autosize=1;strokeColor=none;fillColor=none;" vertex="1" parent="1">
          <mxGeometry x="525" y="200" width="100" height="30" as="geometry" />
        </mxCell>
        <mxCell id="-5Ye7EwcBcriyA_6K1G1-1" value="Liquidation State Machine" style="text;strokeColor=none;fillColor=none;html=1;fontSize=24;fontStyle=1;verticalAlign=middle;align=center;" vertex="1" parent="1">
          <mxGeometry x="200" y="50" width="600" height="40" as="geometry" />
        </mxCell>
        <mxCell id="tQvXWcKD5aCFUEUxoBJ8-1" value="&lt;font size=&quot;1&quot; data-font-src=&quot;https://fonts.googleapis.com/css?family=bold&quot;&gt;&lt;b style=&quot;font-size: 14px;&quot;&gt;&lt;i style=&quot;&quot;&gt;loans below&amp;nbsp; liquidation MCR&lt;/i&gt;&lt;/b&gt;&lt;/font&gt;" style="ellipse;whiteSpace=wrap;html=1;strokeWidth=2;fillWeight=2;hachureGap=8;fillColor=#FF3333;fillStyle=dots;sketch=1;gradientColor=none;opacity=50;" vertex="1" parent="1">
          <mxGeometry x="419" y="420" width="120" height="60" as="geometry" />
        </mxCell>
        <mxCell id="tQvXWcKD5aCFUEUxoBJ8-2" value="Orderly Nework CLOB&amp;nbsp;" style="shape=cube;whiteSpace=wrap;html=1;boundedLbl=1;backgroundOutline=1;darkOpacity=0.05;darkOpacity2=0.1;size=10;" vertex="1" parent="1">
          <mxGeometry x="170" y="200" width="200" height="120" as="geometry" />
        </mxCell>
        <mxCell id="tQvXWcKD5aCFUEUxoBJ8-3" value="" style="endArrow=classic;html=1;rounded=0;exitX=1;exitY=0.392;exitDx=0;exitDy=0;exitPerimeter=0;entryX=0.25;entryY=0.2;entryDx=0;entryDy=0;entryPerimeter=0;" edge="1" parent="1" source="tQvXWcKD5aCFUEUxoBJ8-2" target="pZN_wZDpvpYa7H3pcOcD-23">
          <mxGeometry width="50" height="50" relative="1" as="geometry">
            <mxPoint x="800" y="350" as="sourcePoint" />
            <mxPoint x="850" y="300" as="targetPoint" />
          </mxGeometry>
        </mxCell>
        <mxCell id="tQvXWcKD5aCFUEUxoBJ8-4" value="" style="endArrow=classic;html=1;rounded=0;entryX=0;entryY=0;entryDx=200;entryDy=65;entryPerimeter=0;exitX=0.1;exitY=0.5;exitDx=0;exitDy=0;exitPerimeter=0;" edge="1" parent="1" source="pZN_wZDpvpYa7H3pcOcD-23" target="tQvXWcKD5aCFUEUxoBJ8-2">
          <mxGeometry width="50" height="50" relative="1" as="geometry">
            <mxPoint x="460" y="285" as="sourcePoint" />
            <mxPoint x="510" y="235" as="targetPoint" />
          </mxGeometry>
        </mxCell>
        <mxCell id="tQvXWcKD5aCFUEUxoBJ8-6" value="" style="endArrow=classic;html=1;rounded=0;entryX=0.5;entryY=1;entryDx=0;entryDy=0;exitX=0;exitY=0;exitDx=0;exitDy=0;" edge="1" parent="1" source="tQvXWcKD5aCFUEUxoBJ8-1" target="pZN_wZDpvpYa7H3pcOcD-23">
          <mxGeometry width="50" height="50" relative="1" as="geometry">
            <mxPoint x="450" y="410" as="sourcePoint" />
            <mxPoint x="500" y="360" as="targetPoint" />
          </mxGeometry>
        </mxCell>
        <mxCell id="tQvXWcKD5aCFUEUxoBJ8-7" value="3. Sell NEAR collateral" style="text;html=1;align=center;verticalAlign=middle;resizable=0;points=[];autosize=1;strokeColor=none;fillColor=none;" vertex="1" parent="1">
          <mxGeometry x="404" y="265" width="140" height="30" as="geometry" />
        </mxCell>
        <mxCell id="tQvXWcKD5aCFUEUxoBJ8-8" value="2. fetch loans in default" style="text;html=1;align=center;verticalAlign=middle;resizable=0;points=[];autosize=1;strokeColor=none;fillColor=none;" vertex="1" parent="1">
          <mxGeometry x="437" y="340" width="150" height="30" as="geometry" />
        </mxCell>
        <mxCell id="tQvXWcKD5aCFUEUxoBJ8-9" value="4. Receive USDT" style="text;html=1;align=center;verticalAlign=middle;resizable=0;points=[];autosize=1;strokeColor=none;fillColor=none;" vertex="1" parent="1">
          <mxGeometry x="400" y="223" width="120" height="30" as="geometry" />
        </mxCell>
        <mxCell id="VU5MerBD0r3HuNJz8bSm-1" value="USDT liquidity pool" style="rounded=1;whiteSpace=wrap;html=1;" vertex="1" parent="1">
          <mxGeometry x="577" y="470" width="120" height="40" as="geometry" />
        </mxCell>
        <mxCell id="rrd2jGlVmYNwabWXAMQK-2" value="" style="endArrow=classic;html=1;rounded=0;exitX=0;exitY=0;exitDx=0;exitDy=0;entryX=0;entryY=0.5;entryDx=0;entryDy=0;" edge="1" parent="1" source="pZN_wZDpvpYa7H3pcOcD-2" target="tQvXWcKD5aCFUEUxoBJ8-1">
          <mxGeometry relative="1" as="geometry">
            <mxPoint x="420" y="390" as="sourcePoint" />
            <mxPoint x="520" y="390" as="targetPoint" />
          </mxGeometry>
        </mxCell>
        <mxCell id="rrd2jGlVmYNwabWXAMQK-3" value="Label" style="edgeLabel;resizable=0;html=1;align=center;verticalAlign=middle;" connectable="0" vertex="1" parent="rrd2jGlVmYNwabWXAMQK-2">
          <mxGeometry relative="1" as="geometry" />
        </mxCell>
        <mxCell id="rrd2jGlVmYNwabWXAMQK-4" value="1. loan collateral falls below MCR" style="edgeLabel;html=1;align=center;verticalAlign=middle;resizable=0;points=[];" vertex="1" connectable="0" parent="rrd2jGlVmYNwabWXAMQK-2">
          <mxGeometry x="-0.0165" y="-2" relative="1" as="geometry">
            <mxPoint as="offset" />
          </mxGeometry>
        </mxCell>
        <mxCell id="rrd2jGlVmYNwabWXAMQK-5" value="USDT fees pool" style="rounded=1;whiteSpace=wrap;html=1;" vertex="1" parent="1">
          <mxGeometry x="697" y="421" width="120" height="40" as="geometry" />
        </mxCell>
        <mxCell id="rrd2jGlVmYNwabWXAMQK-6" value="" style="endArrow=classic;html=1;rounded=0;exitX=0.75;exitY=1;exitDx=0;exitDy=0;entryX=0.25;entryY=0;entryDx=0;entryDy=0;" edge="1" parent="1" source="pZN_wZDpvpYa7H3pcOcD-23" target="VU5MerBD0r3HuNJz8bSm-1">
          <mxGeometry relative="1" as="geometry">
            <mxPoint x="420" y="390" as="sourcePoint" />
            <mxPoint x="520" y="390" as="targetPoint" />
          </mxGeometry>
        </mxCell>
        <mxCell id="rrd2jGlVmYNwabWXAMQK-7" value="Label" style="edgeLabel;resizable=0;html=1;align=center;verticalAlign=middle;" connectable="0" vertex="1" parent="rrd2jGlVmYNwabWXAMQK-6">
          <mxGeometry relative="1" as="geometry" />
        </mxCell>
        <mxCell id="rrd2jGlVmYNwabWXAMQK-8" value="Text" style="edgeLabel;html=1;align=center;verticalAlign=middle;resizable=0;points=[];" vertex="1" connectable="0" parent="rrd2jGlVmYNwabWXAMQK-6">
          <mxGeometry x="-0.0097" y="2" relative="1" as="geometry">
            <mxPoint as="offset" />
          </mxGeometry>
        </mxCell>
        <mxCell id="rrd2jGlVmYNwabWXAMQK-9" value="5.a. Return the original USDT borrowed" style="edgeLabel;html=1;align=center;verticalAlign=middle;resizable=0;points=[];" vertex="1" connectable="0" parent="rrd2jGlVmYNwabWXAMQK-6">
          <mxGeometry x="-0.0132" y="-3" relative="1" as="geometry">
            <mxPoint as="offset" />
          </mxGeometry>
        </mxCell>
        <mxCell id="rrd2jGlVmYNwabWXAMQK-10" value="" style="endArrow=classic;html=1;rounded=0;exitX=0.75;exitY=1;exitDx=0;exitDy=0;entryX=0.75;entryY=0;entryDx=0;entryDy=0;" edge="1" parent="1" source="pZN_wZDpvpYa7H3pcOcD-23" target="rrd2jGlVmYNwabWXAMQK-5">
          <mxGeometry relative="1" as="geometry">
            <mxPoint x="420" y="390" as="sourcePoint" />
            <mxPoint x="520" y="390" as="targetPoint" />
          </mxGeometry>
        </mxCell>
        <mxCell id="rrd2jGlVmYNwabWXAMQK-12" value="5.b.i. 90% spread post liquidation&amp;nbsp;" style="edgeLabel;html=1;align=center;verticalAlign=middle;resizable=0;points=[];" vertex="1" connectable="0" parent="rrd2jGlVmYNwabWXAMQK-10">
          <mxGeometry x="-0.0112" y="2" relative="1" as="geometry">
            <mxPoint x="13" y="-16" as="offset" />
          </mxGeometry>
        </mxCell>
        <mxCell id="oFrH9wZoRfDRRtiUh_h3-1" value="Insurance Fund" style="shape=cube;whiteSpace=wrap;html=1;boundedLbl=1;backgroundOutline=1;darkOpacity=0.05;darkOpacity2=0.1;size=10;" vertex="1" parent="1">
          <mxGeometry x="830" y="198" width="120" height="80" as="geometry" />
        </mxCell>
        <mxCell id="oFrH9wZoRfDRRtiUh_h3-4" value="" style="endArrow=classic;html=1;rounded=0;entryX=-0.025;entryY=0.525;entryDx=0;entryDy=0;entryPerimeter=0;" edge="1" parent="1" target="oFrH9wZoRfDRRtiUh_h3-1">
          <mxGeometry relative="1" as="geometry">
            <mxPoint x="680" y="330" as="sourcePoint" />
            <mxPoint x="697" y="140" as="targetPoint" />
          </mxGeometry>
        </mxCell>
        <mxCell id="oFrH9wZoRfDRRtiUh_h3-5" value="Label" style="edgeLabel;resizable=0;html=1;align=center;verticalAlign=middle;" connectable="0" vertex="1" parent="oFrH9wZoRfDRRtiUh_h3-4">
          <mxGeometry relative="1" as="geometry" />
        </mxCell>
        <mxCell id="oFrH9wZoRfDRRtiUh_h3-6" value="5.b.ii. 10% spread post liq &amp;amp; fees" style="edgeLabel;html=1;align=center;verticalAlign=middle;resizable=0;points=[];" vertex="1" connectable="0" parent="oFrH9wZoRfDRRtiUh_h3-4">
          <mxGeometry x="-0.0076" relative="1" as="geometry">
            <mxPoint as="offset" />
          </mxGeometry>
        </mxCell>
      </root>
    </mxGraphModel>
  </diagram>
  <diagram id="4qUH4NDmrtT1vx3c-efc" name="redemption">
    <mxGraphModel dx="1082" dy="1164" grid="1" gridSize="10" guides="1" tooltips="1" connect="1" arrows="1" fold="1" page="1" pageScale="1" pageWidth="1100" pageHeight="850" math="0" shadow="0">
      <root>
        <mxCell id="0" />
        <mxCell id="1" parent="0" />
        <mxCell id="NHj0ab0L5LJGzVlYIcQu-1" value="Smart Contract State" style="verticalAlign=top;align=left;spacingTop=8;spacingLeft=2;spacingRight=12;shape=cube;size=10;direction=south;fontStyle=4;html=1;rounded=0;shadow=0;comic=0;labelBackgroundColor=none;strokeWidth=1;fontFamily=Verdana;fontSize=12" vertex="1" parent="1">
          <mxGeometry x="450" y="390" width="590" height="160" as="geometry" />
        </mxCell>
        <mxCell id="NHj0ab0L5LJGzVlYIcQu-2" value="NEAR/USDT&lt;br&gt;loans in good standing" style="rounded=1;whiteSpace=wrap;html=1;" vertex="1" parent="1">
          <mxGeometry x="670" y="450" width="130" height="50" as="geometry" />
        </mxCell>
        <mxCell id="NHj0ab0L5LJGzVlYIcQu-3" value="Repay USDT loan in full" style="text;html=1;align=center;verticalAlign=middle;resizable=0;points=[];autosize=1;strokeColor=none;fillColor=none;" vertex="1" parent="1">
          <mxGeometry x="380" y="580" width="150" height="30" as="geometry" />
        </mxCell>
        <mxCell id="NHj0ab0L5LJGzVlYIcQu-4" value="Borrowers" style="shape=umlActor;verticalLabelPosition=bottom;verticalAlign=top;html=1;outlineConnect=0;" vertex="1" parent="1">
          <mxGeometry x="490" y="699" width="30" height="60" as="geometry" />
        </mxCell>
        <mxCell id="NHj0ab0L5LJGzVlYIcQu-5" value="" style="endArrow=classic;html=1;rounded=0;entryX=0;entryY=0.5;entryDx=0;entryDy=0;" edge="1" parent="1" target="NHj0ab0L5LJGzVlYIcQu-2">
          <mxGeometry width="50" height="50" relative="1" as="geometry">
            <mxPoint x="470" y="650" as="sourcePoint" />
            <mxPoint x="520" y="600" as="targetPoint" />
          </mxGeometry>
        </mxCell>
        <mxCell id="NHj0ab0L5LJGzVlYIcQu-6" value="" style="endArrow=classic;html=1;rounded=0;exitX=0.25;exitY=1;exitDx=0;exitDy=0;" edge="1" parent="1" source="NHj0ab0L5LJGzVlYIcQu-2">
          <mxGeometry width="50" height="50" relative="1" as="geometry">
            <mxPoint x="730" y="490" as="sourcePoint" />
            <mxPoint x="510" y="680.909090909091" as="targetPoint" />
          </mxGeometry>
        </mxCell>
        <mxCell id="NHj0ab0L5LJGzVlYIcQu-7" value="NEAR collateral returned" style="text;html=1;align=center;verticalAlign=middle;resizable=0;points=[];autosize=1;strokeColor=none;fillColor=none;" vertex="1" parent="1">
          <mxGeometry x="530" y="640" width="160" height="30" as="geometry" />
        </mxCell>
        <mxCell id="NHj0ab0L5LJGzVlYIcQu-8" value="Return original amount of GRTS" style="text;html=1;align=center;verticalAlign=middle;resizable=0;points=[];autosize=1;strokeColor=none;fillColor=none;" vertex="1" parent="1">
          <mxGeometry x="750" y="650" width="190" height="30" as="geometry" />
        </mxCell>
        <mxCell id="NHj0ab0L5LJGzVlYIcQu-9" value="Lenders" style="shape=umlActor;verticalLabelPosition=bottom;verticalAlign=top;html=1;outlineConnect=0;" vertex="1" parent="1">
          <mxGeometry x="979" y="686" width="30" height="60" as="geometry" />
        </mxCell>
        <mxCell id="NHj0ab0L5LJGzVlYIcQu-10" value="Receive USDT" style="text;html=1;align=center;verticalAlign=middle;resizable=0;points=[];autosize=1;strokeColor=none;fillColor=none;" vertex="1" parent="1">
          <mxGeometry x="915" y="590" width="100" height="30" as="geometry" />
        </mxCell>
        <mxCell id="NHj0ab0L5LJGzVlYIcQu-11" value="" style="shape=umlActor;verticalLabelPosition=bottom;verticalAlign=top;html=1;outlineConnect=0;" vertex="1" parent="1">
          <mxGeometry x="450" y="660" width="30" height="60" as="geometry" />
        </mxCell>
        <mxCell id="NHj0ab0L5LJGzVlYIcQu-12" value="" style="shape=umlActor;verticalLabelPosition=bottom;verticalAlign=top;html=1;outlineConnect=0;" vertex="1" parent="1">
          <mxGeometry x="460" y="670" width="30" height="60" as="geometry" />
        </mxCell>
        <mxCell id="NHj0ab0L5LJGzVlYIcQu-13" value="" style="shape=umlActor;verticalLabelPosition=bottom;verticalAlign=top;html=1;outlineConnect=0;" vertex="1" parent="1">
          <mxGeometry x="470" y="680" width="30" height="60" as="geometry" />
        </mxCell>
        <mxCell id="NHj0ab0L5LJGzVlYIcQu-14" value="" style="shape=umlActor;verticalLabelPosition=bottom;verticalAlign=top;html=1;outlineConnect=0;" vertex="1" parent="1">
          <mxGeometry x="480" y="690" width="30" height="60" as="geometry" />
        </mxCell>
        <mxCell id="NHj0ab0L5LJGzVlYIcQu-15" value="" style="shape=umlActor;verticalLabelPosition=bottom;verticalAlign=top;html=1;outlineConnect=0;" vertex="1" parent="1">
          <mxGeometry x="940" y="650" width="30" height="60" as="geometry" />
        </mxCell>
        <mxCell id="NHj0ab0L5LJGzVlYIcQu-16" value="" style="shape=umlActor;verticalLabelPosition=bottom;verticalAlign=top;html=1;outlineConnect=0;" vertex="1" parent="1">
          <mxGeometry x="950" y="660" width="30" height="60" as="geometry" />
        </mxCell>
        <mxCell id="NHj0ab0L5LJGzVlYIcQu-17" value="" style="shape=umlActor;verticalLabelPosition=bottom;verticalAlign=top;html=1;outlineConnect=0;" vertex="1" parent="1">
          <mxGeometry x="960" y="670" width="30" height="60" as="geometry" />
        </mxCell>
        <mxCell id="NHj0ab0L5LJGzVlYIcQu-18" value="" style="shape=umlActor;verticalLabelPosition=bottom;verticalAlign=top;html=1;outlineConnect=0;" vertex="1" parent="1">
          <mxGeometry x="970" y="680" width="30" height="60" as="geometry" />
        </mxCell>
        <mxCell id="NHj0ab0L5LJGzVlYIcQu-19" value="" style="endArrow=classic;html=1;rounded=0;entryX=1;entryY=1;entryDx=0;entryDy=0;" edge="1" parent="1" source="NHj0ab0L5LJGzVlYIcQu-15" target="NHj0ab0L5LJGzVlYIcQu-2">
          <mxGeometry width="50" height="50" relative="1" as="geometry">
            <mxPoint x="730" y="490" as="sourcePoint" />
            <mxPoint x="780" y="440" as="targetPoint" />
          </mxGeometry>
        </mxCell>
        <mxCell id="NHj0ab0L5LJGzVlYIcQu-20" value="" style="endArrow=classic;html=1;rounded=0;exitX=1;exitY=0.5;exitDx=0;exitDy=0;entryX=0.5;entryY=0;entryDx=0;entryDy=0;entryPerimeter=0;" edge="1" parent="1" source="NHj0ab0L5LJGzVlYIcQu-2" target="NHj0ab0L5LJGzVlYIcQu-15">
          <mxGeometry width="50" height="50" relative="1" as="geometry">
            <mxPoint x="730" y="490" as="sourcePoint" />
            <mxPoint x="780" y="440" as="targetPoint" />
          </mxGeometry>
        </mxCell>
        <mxCell id="NHj0ab0L5LJGzVlYIcQu-23" value="Redemption State Machine" style="text;strokeColor=none;fillColor=none;html=1;fontSize=24;fontStyle=1;verticalAlign=middle;align=center;" vertex="1" parent="1">
          <mxGeometry x="430" y="320" width="600" height="40" as="geometry" />
        </mxCell>
      </root>
    </mxGraphModel>
  </diagram>
  <diagram id="2K0z5_FNlHuZK1lPjZRX" name="recovery mode">
    <mxGraphModel dx="2182" dy="1164" grid="1" gridSize="10" guides="1" tooltips="1" connect="1" arrows="1" fold="1" page="1" pageScale="1" pageWidth="1100" pageHeight="850" math="0" shadow="0">
      <root>
        <mxCell id="0" />
        <mxCell id="1" parent="0" />
        <mxCell id="_p8I2AfNouvPiahWChTC-1" value="Smart Contract State" style="verticalAlign=top;align=left;spacingTop=8;spacingLeft=2;spacingRight=12;shape=cube;size=10;direction=south;fontStyle=4;html=1;rounded=0;shadow=0;comic=0;labelBackgroundColor=none;strokeWidth=1;fontFamily=Verdana;fontSize=12" vertex="1" parent="1">
          <mxGeometry x="250" y="400" width="590" height="160" as="geometry" />
        </mxCell>
        <mxCell id="_p8I2AfNouvPiahWChTC-2" value="NEAR/USDT&lt;br&gt;loans in good standing" style="rounded=1;whiteSpace=wrap;html=1;" vertex="1" parent="1">
          <mxGeometry x="290" y="500" width="130" height="50" as="geometry" />
        </mxCell>
        <mxCell id="_p8I2AfNouvPiahWChTC-3" value="&lt;strike&gt;Deposit NEAR Collateral Disabled&lt;/strike&gt;" style="text;html=1;align=center;verticalAlign=middle;resizable=0;points=[];autosize=1;strokeColor=none;fillColor=none;" vertex="1" parent="1">
          <mxGeometry x="90" y="608" width="200" height="30" as="geometry" />
        </mxCell>
        <mxCell id="_p8I2AfNouvPiahWChTC-4" value="Borrowers unable to borrow more" style="shape=umlActor;verticalLabelPosition=bottom;verticalAlign=top;html=1;outlineConnect=0;" vertex="1" parent="1">
          <mxGeometry x="290" y="709" width="30" height="60" as="geometry" />
        </mxCell>
        <mxCell id="_p8I2AfNouvPiahWChTC-5" value="" style="endArrow=classic;html=1;rounded=0;entryX=0;entryY=0.5;entryDx=0;entryDy=0;dashed=1;dashPattern=12 12;" edge="1" parent="1" target="_p8I2AfNouvPiahWChTC-2">
          <mxGeometry width="50" height="50" relative="1" as="geometry">
            <mxPoint x="270" y="660" as="sourcePoint" />
            <mxPoint x="320" y="610" as="targetPoint" />
          </mxGeometry>
        </mxCell>
        <mxCell id="_p8I2AfNouvPiahWChTC-6" value="" style="endArrow=classic;html=1;rounded=0;exitX=0.25;exitY=1;exitDx=0;exitDy=0;dashed=1;dashPattern=12 12;" edge="1" parent="1" source="_p8I2AfNouvPiahWChTC-2">
          <mxGeometry width="50" height="50" relative="1" as="geometry">
            <mxPoint x="530" y="500" as="sourcePoint" />
            <mxPoint x="310" y="690.909090909091" as="targetPoint" />
          </mxGeometry>
        </mxCell>
        <mxCell id="_p8I2AfNouvPiahWChTC-7" value="&lt;strike&gt;Borrow USDT Disabled&lt;/strike&gt;" style="text;html=1;align=center;verticalAlign=middle;resizable=0;points=[];autosize=1;strokeColor=none;fillColor=none;" vertex="1" parent="1">
          <mxGeometry x="290" y="605" width="150" height="30" as="geometry" />
        </mxCell>
        <mxCell id="_p8I2AfNouvPiahWChTC-8" value="Receive USDT" style="text;html=1;align=center;verticalAlign=middle;resizable=0;points=[];autosize=1;strokeColor=none;fillColor=none;" vertex="1" parent="1">
          <mxGeometry x="755" y="605" width="100" height="30" as="geometry" />
        </mxCell>
        <mxCell id="_p8I2AfNouvPiahWChTC-9" value="Lenders wanting to withdraw" style="shape=umlActor;verticalLabelPosition=bottom;verticalAlign=top;html=1;outlineConnect=0;" vertex="1" parent="1">
          <mxGeometry x="779" y="696" width="30" height="60" as="geometry" />
        </mxCell>
        <mxCell id="_p8I2AfNouvPiahWChTC-10" value="Pay extra GRTS to jump queue" style="text;html=1;align=center;verticalAlign=middle;resizable=0;points=[];autosize=1;strokeColor=none;fillColor=none;" vertex="1" parent="1">
          <mxGeometry x="565" y="605" width="190" height="30" as="geometry" />
        </mxCell>
        <mxCell id="_p8I2AfNouvPiahWChTC-11" value="" style="shape=umlActor;verticalLabelPosition=bottom;verticalAlign=top;html=1;outlineConnect=0;" vertex="1" parent="1">
          <mxGeometry x="250" y="670" width="30" height="60" as="geometry" />
        </mxCell>
        <mxCell id="_p8I2AfNouvPiahWChTC-12" value="" style="shape=umlActor;verticalLabelPosition=bottom;verticalAlign=top;html=1;outlineConnect=0;" vertex="1" parent="1">
          <mxGeometry x="260" y="680" width="30" height="60" as="geometry" />
        </mxCell>
        <mxCell id="_p8I2AfNouvPiahWChTC-13" value="" style="shape=umlActor;verticalLabelPosition=bottom;verticalAlign=top;html=1;outlineConnect=0;" vertex="1" parent="1">
          <mxGeometry x="270" y="690" width="30" height="60" as="geometry" />
        </mxCell>
        <mxCell id="_p8I2AfNouvPiahWChTC-14" value="" style="shape=umlActor;verticalLabelPosition=bottom;verticalAlign=top;html=1;outlineConnect=0;" vertex="1" parent="1">
          <mxGeometry x="280" y="700" width="30" height="60" as="geometry" />
        </mxCell>
        <mxCell id="_p8I2AfNouvPiahWChTC-15" value="" style="shape=umlActor;verticalLabelPosition=bottom;verticalAlign=top;html=1;outlineConnect=0;" vertex="1" parent="1">
          <mxGeometry x="940" y="410" width="30" height="60" as="geometry" />
        </mxCell>
        <mxCell id="_p8I2AfNouvPiahWChTC-17" value="" style="shape=umlActor;verticalLabelPosition=bottom;verticalAlign=top;html=1;outlineConnect=0;" vertex="1" parent="1">
          <mxGeometry x="760" y="680" width="30" height="60" as="geometry" />
        </mxCell>
        <mxCell id="_p8I2AfNouvPiahWChTC-18" value="" style="shape=umlActor;verticalLabelPosition=bottom;verticalAlign=top;html=1;outlineConnect=0;" vertex="1" parent="1">
          <mxGeometry x="770" y="690" width="30" height="60" as="geometry" />
        </mxCell>
        <mxCell id="_p8I2AfNouvPiahWChTC-23" value="Recovery Mode State Machine" style="text;strokeColor=none;fillColor=none;html=1;fontSize=24;fontStyle=1;verticalAlign=middle;align=center;" vertex="1" parent="1">
          <mxGeometry x="209" y="343" width="600" height="40" as="geometry" />
        </mxCell>
        <mxCell id="_p8I2AfNouvPiahWChTC-32" value="USDT liquidity pool&lt;br&gt;(EMPTY)" style="rounded=1;whiteSpace=wrap;html=1;fillColor=#FF9999;" vertex="1" parent="1">
          <mxGeometry x="600" y="430" width="120" height="70" as="geometry" />
        </mxCell>
        <mxCell id="_p8I2AfNouvPiahWChTC-49" value="Heroic Lenders" style="text;html=1;align=center;verticalAlign=middle;resizable=0;points=[];autosize=1;strokeColor=none;fillColor=none;" vertex="1" parent="1">
          <mxGeometry x="900" y="468" width="100" height="30" as="geometry" />
        </mxCell>
        <mxCell id="_p8I2AfNouvPiahWChTC-50" value="Faithful Borrowers repaying loan" style="shape=umlActor;verticalLabelPosition=bottom;verticalAlign=top;html=1;outlineConnect=0;" vertex="1" parent="1">
          <mxGeometry x="50" y="430" width="30" height="60" as="geometry" />
        </mxCell>
        <mxCell id="_p8I2AfNouvPiahWChTC-51" value="" style="shape=umlActor;verticalLabelPosition=bottom;verticalAlign=top;html=1;outlineConnect=0;" vertex="1" parent="1">
          <mxGeometry x="40" y="425" width="30" height="60" as="geometry" />
        </mxCell>
        <mxCell id="_p8I2AfNouvPiahWChTC-52" value="" style="shape=umlActor;verticalLabelPosition=bottom;verticalAlign=top;html=1;outlineConnect=0;" vertex="1" parent="1">
          <mxGeometry x="931" y="404" width="30" height="60" as="geometry" />
        </mxCell>
        <mxCell id="_p8I2AfNouvPiahWChTC-53" value="" style="endArrow=classic;html=1;rounded=0;dashed=1;" edge="1" parent="1" target="_p8I2AfNouvPiahWChTC-2">
          <mxGeometry relative="1" as="geometry">
            <mxPoint x="90" y="464" as="sourcePoint" />
            <mxPoint x="190" y="464" as="targetPoint" />
          </mxGeometry>
        </mxCell>
        <mxCell id="_p8I2AfNouvPiahWChTC-54" value="Label" style="edgeLabel;resizable=0;html=1;align=center;verticalAlign=middle;" connectable="0" vertex="1" parent="_p8I2AfNouvPiahWChTC-53">
          <mxGeometry relative="1" as="geometry" />
        </mxCell>
        <mxCell id="_p8I2AfNouvPiahWChTC-55" value="Repay Loaned USDT" style="edgeLabel;html=1;align=center;verticalAlign=middle;resizable=0;points=[];" vertex="1" connectable="0" parent="_p8I2AfNouvPiahWChTC-53">
          <mxGeometry x="-0.0052" y="-2" relative="1" as="geometry">
            <mxPoint as="offset" />
          </mxGeometry>
        </mxCell>
        <mxCell id="_p8I2AfNouvPiahWChTC-56" value="" style="endArrow=classic;html=1;rounded=0;exitX=1;exitY=0.5;exitDx=0;exitDy=0;entryX=0;entryY=0.5;entryDx=0;entryDy=0;dashed=1;" edge="1" parent="1" source="_p8I2AfNouvPiahWChTC-2" target="_p8I2AfNouvPiahWChTC-32">
          <mxGeometry relative="1" as="geometry">
            <mxPoint x="450" y="470" as="sourcePoint" />
            <mxPoint x="550" y="470" as="targetPoint" />
          </mxGeometry>
        </mxCell>
        <mxCell id="_p8I2AfNouvPiahWChTC-57" value="Label" style="edgeLabel;resizable=0;html=1;align=center;verticalAlign=middle;" connectable="0" vertex="1" parent="_p8I2AfNouvPiahWChTC-56">
          <mxGeometry relative="1" as="geometry" />
        </mxCell>
        <mxCell id="_p8I2AfNouvPiahWChTC-64" value="USDT from newly repaid loans" style="edgeLabel;html=1;align=center;verticalAlign=middle;resizable=0;points=[];" vertex="1" connectable="0" parent="_p8I2AfNouvPiahWChTC-56">
          <mxGeometry x="-0.0048" y="2" relative="1" as="geometry">
            <mxPoint as="offset" />
          </mxGeometry>
        </mxCell>
        <mxCell id="_p8I2AfNouvPiahWChTC-59" value="" style="endArrow=classic;html=1;rounded=0;exitX=0.5;exitY=0;exitDx=0;exitDy=0;dashed=1;" edge="1" parent="1" source="_p8I2AfNouvPiahWChTC-2">
          <mxGeometry relative="1" as="geometry">
            <mxPoint x="100" y="310" as="sourcePoint" />
            <mxPoint x="90" y="420" as="targetPoint" />
          </mxGeometry>
        </mxCell>
        <mxCell id="_p8I2AfNouvPiahWChTC-60" value="Label" style="edgeLabel;resizable=0;html=1;align=center;verticalAlign=middle;" connectable="0" vertex="1" parent="_p8I2AfNouvPiahWChTC-59">
          <mxGeometry relative="1" as="geometry" />
        </mxCell>
        <mxCell id="_p8I2AfNouvPiahWChTC-61" value="NEAR Collateral Returned" style="edgeLabel;html=1;align=center;verticalAlign=middle;resizable=0;points=[];" vertex="1" connectable="0" parent="_p8I2AfNouvPiahWChTC-59">
          <mxGeometry x="0.0014" y="1" relative="1" as="geometry">
            <mxPoint as="offset" />
          </mxGeometry>
        </mxCell>
        <mxCell id="_p8I2AfNouvPiahWChTC-65" value="" style="endArrow=classic;html=1;rounded=0;entryX=0.5;entryY=1;entryDx=0;entryDy=0;dashed=1;" edge="1" parent="1" target="_p8I2AfNouvPiahWChTC-32">
          <mxGeometry width="50" height="50" relative="1" as="geometry">
            <mxPoint x="740" y="750" as="sourcePoint" />
            <mxPoint x="550" y="360" as="targetPoint" />
          </mxGeometry>
        </mxCell>
        <mxCell id="_p8I2AfNouvPiahWChTC-66" value="" style="endArrow=classic;html=1;rounded=0;exitX=0.75;exitY=1;exitDx=0;exitDy=0;entryX=0.75;entryY=0.1;entryDx=0;entryDy=0;entryPerimeter=0;dashed=1;dashPattern=12 12;" edge="1" parent="1" source="_p8I2AfNouvPiahWChTC-32" target="_p8I2AfNouvPiahWChTC-9">
          <mxGeometry width="50" height="50" relative="1" as="geometry">
            <mxPoint x="500" y="410" as="sourcePoint" />
            <mxPoint x="550" y="360" as="targetPoint" />
            <Array as="points">
              <mxPoint x="740" y="590" />
            </Array>
          </mxGeometry>
        </mxCell>
        <mxCell id="_p8I2AfNouvPiahWChTC-67" value="" style="endArrow=classic;html=1;rounded=0;exitX=0;exitY=0.3333333333333333;exitDx=0;exitDy=0;exitPerimeter=0;entryX=1;entryY=0.25;entryDx=0;entryDy=0;dashed=1;" edge="1" parent="1" source="_p8I2AfNouvPiahWChTC-52" target="_p8I2AfNouvPiahWChTC-32">
          <mxGeometry relative="1" as="geometry">
            <mxPoint x="470" y="380" as="sourcePoint" />
            <mxPoint x="570" y="380" as="targetPoint" />
          </mxGeometry>
        </mxCell>
        <mxCell id="_p8I2AfNouvPiahWChTC-68" value="Label" style="edgeLabel;resizable=0;html=1;align=center;verticalAlign=middle;" connectable="0" vertex="1" parent="_p8I2AfNouvPiahWChTC-67">
          <mxGeometry relative="1" as="geometry" />
        </mxCell>
        <mxCell id="_p8I2AfNouvPiahWChTC-72" value="Lend USDT" style="edgeLabel;html=1;align=center;verticalAlign=middle;resizable=0;points=[];" vertex="1" connectable="0" parent="_p8I2AfNouvPiahWChTC-67">
          <mxGeometry x="-0.0044" relative="1" as="geometry">
            <mxPoint as="offset" />
          </mxGeometry>
        </mxCell>
        <mxCell id="_p8I2AfNouvPiahWChTC-74" value="" style="endArrow=classic;html=1;rounded=0;exitX=1;exitY=0.75;exitDx=0;exitDy=0;entryX=0;entryY=1;entryDx=0;entryDy=0;entryPerimeter=0;dashed=1;" edge="1" parent="1" source="_p8I2AfNouvPiahWChTC-32" target="_p8I2AfNouvPiahWChTC-52">
          <mxGeometry relative="1" as="geometry">
            <mxPoint x="470" y="380" as="sourcePoint" />
            <mxPoint x="570" y="380" as="targetPoint" />
          </mxGeometry>
        </mxCell>
        <mxCell id="_p8I2AfNouvPiahWChTC-75" value="Label" style="edgeLabel;resizable=0;html=1;align=center;verticalAlign=middle;" connectable="0" vertex="1" parent="_p8I2AfNouvPiahWChTC-74">
          <mxGeometry relative="1" as="geometry" />
        </mxCell>
        <mxCell id="_p8I2AfNouvPiahWChTC-76" value="Receive Bonus GRTS" style="edgeLabel;html=1;align=center;verticalAlign=middle;resizable=0;points=[];" vertex="1" connectable="0" parent="_p8I2AfNouvPiahWChTC-74">
          <mxGeometry x="0.063" y="2" relative="1" as="geometry">
            <mxPoint as="offset" />
          </mxGeometry>
        </mxCell>
        <mxCell id="_p8I2AfNouvPiahWChTC-77" value="" style="endArrow=classic;html=1;rounded=0;dashed=1;strokeWidth=1;" edge="1" parent="1">
          <mxGeometry width="50" height="50" relative="1" as="geometry">
            <mxPoint x="44" y="345" as="sourcePoint" />
            <mxPoint x="107" y="274" as="targetPoint" />
          </mxGeometry>
        </mxCell>
        <mxCell id="_p8I2AfNouvPiahWChTC-79" value="Events that can happen &lt;i&gt;&lt;b&gt;while&lt;/b&gt;&lt;/i&gt; protocol is in recovery mode" style="rounded=0;whiteSpace=wrap;html=1;strokeWidth=0;" vertex="1" parent="1">
          <mxGeometry x="118" y="265" width="130" height="80" as="geometry" />
        </mxCell>
        <mxCell id="_p8I2AfNouvPiahWChTC-82" value="" style="endArrow=classic;html=1;rounded=0;dashed=1;dashPattern=12 12;strokeWidth=1;" edge="1" parent="1">
          <mxGeometry width="50" height="50" relative="1" as="geometry">
            <mxPoint x="749" y="341" as="sourcePoint" />
            <mxPoint x="819" y="271" as="targetPoint" />
          </mxGeometry>
        </mxCell>
        <mxCell id="_p8I2AfNouvPiahWChTC-83" value="Events that can only happen &lt;b&gt;&lt;i&gt;after&lt;/i&gt;&lt;/b&gt; protocol is out of recovery mode" style="rounded=0;whiteSpace=wrap;html=1;strokeWidth=0;" vertex="1" parent="1">
          <mxGeometry x="827" y="263" width="133" height="80" as="geometry" />
        </mxCell>
      </root>
    </mxGraphModel>
  </diagram>
</mxfile>
